# WaveFront *.obj file (generated by CINEMA 4D)

mtllib ./c_t.mtl

v -0.5 -0.5 0.5
v -0.5 0.5 0.5
v 0.5 -0.5 0.5
v 0.5 0.5 0.5
v 0.5 -0.5 -0.5
v 0.5 0.5 -0.5
v -0.5 -0.5 -0.5
v -0.5 0.5 -0.5
# 8 vertices

vn 0 0 1
vn 0 0 0
vn 1 0 0
vn 0 0 -1
vn -1 0 0
vn 0 1 0
vn 0 -1 0
vn -1 0 0
vn 0 1 0
vn 0 1 0
# 10 normals

vt 0 0 0
vt 0 1 0
vt 1 1 0
vt 1 0 0
# 4 texture coordinates

o Cubo
usemtl default
f 4/3/1 2/2/1 1/1/1
f 6/3/3 4/2/3 3/1/3
f 8/3/4 6/2/4 5/1/4
f 2/3/5 8/2/5 7/1/5
f 6/3/6 8/2/6 2/1/6
f 3/3/7 1/2/7 7/1/7
f 3/4/1 4/3/1 1/1/1
f 5/4/3 6/3/3 3/1/3
f 7/4/4 8/3/4 5/1/4
f 1/4/5 2/3/5 7/1/5
f 4/4/6 6/3/6 2/1/6
f 5/4/7 3/3/7 7/1/7

