# WaveFront *.obj file (generated by CINEMA 4D)

mtllib ./test.mtl

v -1 -1 1
v -1 1 1
v 1 -1 1
v 1 1 1
v 1 -1 -1
v 1 1 -1
v -1 -1 -1
v -1 1 -1
# 8 vertices

vn 0 0 1
vn 0 0 1
vn 0 0 1
vn 0 0 1
vn 1 0 0
vn 1 0 0
vn 1 0 0
vn 1 0 0
vn 0 0 -1
vn 0 0 -1
vn 0 0 -1
vn 0 0 -1
vn -1 0 0
vn -1 0 0
vn -1 0 0
vn -1 0 0
vn 0 1 0
vn 0 1 0
vn 0 1 0
vn 0 1 0
vn 0 -1 0
vn 0 -1 0
vn 0 -1 0
vn 0 -1 0
vn 0 0 1
vn 0 0 1
vn 0 0 1
vn 0 0 1
vn 1 0 0
vn 1 0 0
vn 1 0 0
vn 1 0 0
vn 0 0 -1
vn 0 0 -1
vn 0 0 -1
vn 0 0 -1
vn -1 0 0
vn -1 0 0
vn -1 0 0
vn -1 0 0
vn 0 1 0
vn 0 1 0
vn 0 1 0
vn 0 1 0
vn 0 -1 0
vn 0 -1 0
vn 0 -1 0
vn 0 -1 0
# 48 normals

vt 0.01167546957731 0.67445033788681 0
vt 0.01167546957731 0.99221634864807 0
vt 0.48832452297211 0.99221634864807 0
vt 0.40888300538063 0.8862943649292 0
vt 0.51167547702789 0.67445033788681 0
vt 0.51167547702789 0.99221634864807 0
vt 0.98832452297211 0.99221634864807 0
vt 0.90888303518295 0.8862943649292 0
vt 0.01167546957731 0.34111702442169 0
vt 0.01167546957731 0.65888303518295 0
vt 0.48832452297211 0.65888303518295 0
vt 0.40888300538063 0.55296099185944 0
vt 0.51167547702789 0.34111702442169 0
vt 0.51167547702789 0.65888303518295 0
vt 0.98832452297211 0.65888303518295 0
vt 0.90888303518295 0.55296099185944 0
vt 0.01167546957731 0.00778365135193 0
vt 0.01167546957731 0.32554972171783 0
vt 0.48832452297211 0.32554972171783 0
vt 0.40888300538063 0.21962773799896 0
vt 0.51167547702789 0.00778365135193 0
vt 0.51167547702789 0.32554972171783 0
vt 0.98832452297211 0.32554972171783 0
vt 0.90888303518295 0.21962773799896 0
vt 0.01167546957731 0.67445033788681 0
vt 0.48832452297211 0.99221634864807 0
vt 0.48832452297211 0.67445033788681 0
vt 0.40888300538063 0.72741132974625 0
vt 0.51167547702789 0.67445033788681 0
vt 0.98832452297211 0.99221634864807 0
vt 0.98832452297211 0.67445033788681 0
vt 0.90888303518295 0.72741132974625 0
vt 0.01167546957731 0.34111702442169 0
vt 0.48832452297211 0.65888303518295 0
vt 0.48832452297211 0.34111702442169 0
vt 0.40888300538063 0.39407801628113 0
vt 0.51167547702789 0.34111702442169 0
vt 0.98832452297211 0.65888303518295 0
vt 0.98832452297211 0.34111702442169 0
vt 0.90888303518295 0.39407801628113 0
vt 0.01167546957731 0.00778365135193 0
vt 0.48832452297211 0.32554972171783 0
vt 0.48832452297211 0.00778365135193 0
vt 0.40888300538063 0.06074464321136 0
vt 0.51167547702789 0.00778365135193 0
vt 0.98832452297211 0.32554972171783 0
vt 0.98832452297211 0.00778365135193 0
vt 0.90888303518295 0.06074464321136 0
# 48 texture coordinates

o Cubo
usemtl default
f 4/3/1 2/2/1 1/1/1
f 6/7/5 4/6/5 3/5/5
f 8/11/9 6/10/9 5/9/9
f 2/15/13 8/14/13 7/13/13
f 6/19/17 8/18/17 2/17/17
f 3/23/21 1/22/21 7/21/21
f 3/27/1 4/3/1 1/1/1
f 5/31/5 6/7/5 3/5/5
f 7/35/9 8/11/9 5/9/9
f 1/39/13 2/15/13 7/13/13
f 4/43/17 6/19/17 2/17/17
f 5/47/21 3/23/21 7/21/21

