# WaveFront *.obj file (generated by CINEMA 4D)

mtllib ./test.mtl

v -1 -1 1
v -1 1 1
v 1 -1 1
v 1 1 1
v 1 -1 -1
v 1 1 -1
v -1 -1 -1
v -1 1 -1
# 8 vertices

vn 0 0 1
vn 0 0 1
vn 0 0 1
vn 0 0 0
vn 1 0 0
vn 1 0 0
vn 1 0 0
vn 0 0 0
vn 0 0 -1
vn 0 0 -1
vn 0 0 -1
vn 0 0 0
vn -1 0 0
vn -1 0 0
vn -1 0 0
vn 0 0 0
vn 0 1 0
vn 0 1 0
vn 0 1 0
vn 0 0 0
vn 0 -1 0
vn 0 -1 0
vn 0 -1 0
vn 0 0 0
vn 0 0 1
vn 0 0 1
vn 0 0 1
vn 0 0 0
vn 1 0 0
vn 1 0 0
vn 1 0 0
vn 0 0 0
vn 0 0 -1
vn 0 0 -1
vn 0 0 -1
vn 0 0 0
vn -1 0 0
vn -1 0 0
vn -1 0 0
vn 0 0 0
vn 0 1 0
vn 0 1 0
vn 0 1 0
vn 0 0 0
vn 0 -1 0
vn 0 -1 0
vn 0 -1 0
vn 0 0 0
# 48 normals

vt 0 0 0
vt 0 1 0
vt 1 1 0
vt 0 1 0
vt 0 0 0
vt 0 1 0
vt 1 1 0
vt 0 1 0
vt 0 0 0
vt 0 1 0
vt 1 1 0
vt 0 1 0
vt 0 0 0
vt 0 1 0
vt 1 1 0
vt 0 1 0
vt 0 0 0
vt 0 1 0
vt 1 1 0
vt 0 1 0
vt 0 0 0
vt 0 1 0
vt 1 1 0
vt 0 1 0
vt 0 0 0
vt 1 1 0
vt 1 0 0
vt 0 1 0
vt 0 0 0
vt 1 1 0
vt 1 0 0
vt 0 1 0
vt 0 0 0
vt 1 1 0
vt 1 0 0
vt 0 1 0
vt 0 0 0
vt 1 1 0
vt 1 0 0
vt 0 1 0
vt 0 0 0
vt 1 1 0
vt 1 0 0
vt 0 1 0
vt 0 0 0
vt 1 1 0
vt 1 0 0
vt 0 1 0
# 48 texture coordinates

o Cubo
usemtl default
f 4/3/1 2/2/1 1/1/1
f 6/3/5 4/2/5 3/1/5
f 8/3/9 6/2/9 5/1/9
f 2/3/13 8/2/13 7/1/13
f 6/3/17 8/2/17 2/1/17
f 3/3/21 1/2/21 7/1/21
f 3/27/1 4/3/1 1/1/1
f 5/27/5 6/3/5 3/1/5
f 7/27/9 8/3/9 5/1/9
f 1/27/13 2/3/13 7/1/13
f 4/27/17 6/3/17 2/1/17
f 5/27/21 3/3/21 7/1/21

